<svg xmlns="http://www.w3.org/2000/svg" viewBox="-0.5 -0.5 24 24" id="Ecology-Global-Warming-Globe-Fire--Streamline-Pixel.svg" height="24" width="24"><desc>Ecology Global Warming Globe Fire Streamline Icon: https://streamlinehq.com</desc><title>ecology-global-warming-globe-fire</title><g><path d="M21.9075 7.6690625H23v1.0925h-1.0925Z" fill="#000000" stroke-width="1"></path><path d="m21.9075 6.5765625000000005 0 -2.1921874999999997 1.0925 0 0 -1.0996875 -2.1921874999999997 0 0 1.0996875 -1.0925 0 0 1.0925 -1.0925 0 0 1.0996875 -1.0996875 0 0 -3.291875 -1.0925 0 0 -2.185 -1.0996875 0 0 2.185 -1.0925 0 0 2.1921874999999997 -1.0925 0 0 -1.0925 -1.0996875 0 0 -2.1921874999999997 1.0996875 0 0 -2.1921874999999997 -2.1921874999999997 0 0 1.0996875 -1.0925 0 0 1.0925 -1.0996875 0 0 2.1921874999999997 -1.0925 0 0 1.0925 -1.0996875 0 0 -2.1921874999999997 -1.0925 0 0 -1.0925 -1.0925 0 0 -1.0925 -2.1921874999999997 0 0 1.0925 1.0925 0 0 3.2846875000000004 -1.0925 0 0 2.1921874999999997 1.0925 0 0 1.0925 -2.1921874999999997 0 0 -1.0925 -1.0925 0 0 3.2846875000000004 1.0925 0 0 2.1921874999999997 1.0996875 0 0 -1.0925 1.0925 0 0 -2.1921874999999997 1.0996875 0 0 -4.3843749999999995 1.0925 0 0 1.0996875 1.0925 0 0 1.0925 2.1921874999999997 0 0 -1.0925 1.0996875 0 0 -2.1921874999999997 1.0925 0 0 2.1921874999999997 4.3771875 0 0 -1.0996875 1.0996875 0 0 3.2846875000000004 2.1921874999999997 0 0 3.291875 1.0925 0 0 2.185 1.0925 0 0 -2.185 1.0996875 0 0 -3.291875 -1.0996875 0 0 -2.185 1.0996875 0z" fill="#000000" stroke-width="1"></path><path d="M19.7153125 1.0996875h1.0925v1.0925h-1.0925Z" fill="#000000" stroke-width="1"></path><path d="M18.6228125 2.1921874999999997h1.0925v1.0925h-1.0925Z" fill="#000000" stroke-width="1"></path><path d="M17.523125 0h1.0996875v1.0996875h-1.0996875Z" fill="#000000" stroke-width="1"></path><path d="M16.430625 17.523125h1.0925v2.1921874999999997h-1.0925Z" fill="#000000" stroke-width="1"></path><path d="m16.430625 14.2384375 1.0925 0 0 3.2846875000000004 1.0996875 0 0 -4.3771875 -1.0996875 0 0 -2.1921874999999997 -1.0925 0 0 3.2846875000000004z" fill="#000000" stroke-width="1"></path><path d="M15.3309375 19.7153125h1.0996875v1.0996875h-1.0996875Z" fill="#000000" stroke-width="1"></path><path d="M15.3309375 14.2384375h1.0996875v1.0996875h-1.0996875Z" fill="#000000" stroke-width="1"></path><path d="M15.3309375 9.86125h1.0996875v1.0925h-1.0996875Z" fill="#000000" stroke-width="1"></path><path d="M14.2384375 17.523125h1.0925v2.1921874999999997h-1.0925Z" fill="#000000" stroke-width="1"></path><path d="M14.2384375 13.145937499999999h1.0925v1.0925h-1.0925Z" fill="#000000" stroke-width="1"></path><path d="M13.145937499999999 20.815h2.185v1.0925h-2.185Z" fill="#000000" stroke-width="1"></path><path d="M13.145937499999999 16.430625h1.0925v1.0925h-1.0925Z" fill="#000000" stroke-width="1"></path><path d="M13.145937499999999 12.0534375h1.0925v1.0925h-1.0925Z" fill="#000000" stroke-width="1"></path><path d="M13.145937499999999 8.7615625h2.185v1.0996875h-2.185Z" fill="#000000" stroke-width="1"></path><path d="M10.95375 15.338125h2.1921874999999997v1.0925h-2.1921874999999997Z" fill="#000000" stroke-width="1"></path><path d="M12.04625 9.86125h1.0996875v2.1921874999999997h-1.0996875Z" fill="#000000" stroke-width="1"></path><path d="m10.95375 19.7153125 -1.0925 0 0 2.1921874999999997 -1.0996875 0 0 1.0925 4.3843749999999995 0 0 -1.0925 -2.1921874999999997 0 0 -2.1921874999999997z" fill="#000000" stroke-width="1"></path><path d="M10.95375 17.523125h1.0925v2.1921874999999997h-1.0925Z" fill="#000000" stroke-width="1"></path><path d="M9.86125 16.430625h1.0925v1.0925h-1.0925Z" fill="#000000" stroke-width="1"></path><path d="M8.7615625 12.0534375h1.0996875v2.185h-1.0996875Z" fill="#000000" stroke-width="1"></path><path d="M6.569375000000001 20.815h2.1921874999999997v1.0925H6.569375000000001Z" fill="#000000" stroke-width="1"></path><path d="M7.6690625 14.2384375h1.0925v1.0996875h-1.0925Z" fill="#000000" stroke-width="1"></path><path d="M7.6690625 10.95375h1.0925v1.0996875h-1.0925Z" fill="#000000" stroke-width="1"></path><path d="m6.569375000000001 8.7615625 0 1.0996875 2.1921874999999997 0 0 1.0925 1.0996875 0 0 -2.1921874999999997 3.2846875000000004 0 0 -1.0925 -4.3843749999999995 0 0 1.0925 -2.1921874999999997 0z" fill="#000000" stroke-width="1"></path><path d="M6.569375000000001 15.338125h1.0996875v1.0925H6.569375000000001Z" fill="#000000" stroke-width="1"></path><path d="M6.569375000000001 1.0996875h1.0996875v1.0925H6.569375000000001Z" fill="#000000" stroke-width="1"></path><path d="M5.476875 19.7153125h1.0925v1.0996875H5.476875Z" fill="#000000" stroke-width="1"></path><path d="M5.476875 14.2384375h1.0925v1.0996875H5.476875Z" fill="#000000" stroke-width="1"></path><path d="M5.476875 9.86125h1.0925v1.0925H5.476875Z" fill="#000000" stroke-width="1"></path><path d="M5.476875 0h1.0925v1.0996875H5.476875Z" fill="#000000" stroke-width="1"></path><path d="M4.3843749999999995 17.523125h1.0925v2.1921874999999997H4.3843749999999995Z" fill="#000000" stroke-width="1"></path><path d="m4.3843749999999995 14.2384375 1.0925 0 0 -3.2846875000000004 -1.0925 0 0 2.1921874999999997 -1.0996875 0 0 4.3771875 1.0996875 0 0 -3.2846875000000004z" fill="#000000" stroke-width="1"></path><path d="M1.0925 3.2846875000000004h1.0996875V4.3843749999999995H1.0925Z" fill="#000000" stroke-width="1"></path><path d="M0 2.1921874999999997h1.0925v1.0925H0Z" fill="#000000" stroke-width="1"></path></g></svg>